ffmpeg started on 2016-11-28 at 05:53:34
Report written to "Output/NVENCh264/results/ffmpeg/sintelllhp11000k.log"
Command line:
Tools/ffmpeg/ffmpeg -benchmark -y -i Input/y4m/sintel.y4m -c:v h264_nvenc -preset llhp -b:v 11000k -an Output/NVENCh264/encoded/sintelllhp11000k.mkv
ffmpeg version N-82227-gdb23fde Copyright (c) 2000-2016 the FFmpeg developers
  built with gcc 5.4.0 (Ubuntu 5.4.0-6ubuntu1~16.04.2) 20160609
  configuration: --prefix=/home/jaroslav/ffmpeg_build --pkg-config-flags=--static --extra-cflags=-I/home/jaroslav/ffmpeg_build/include --extra-ldflags=-L/home/jaroslav/ffmpeg_build/lib --bindir=/home/jaroslav/bin --enable-gpl --enable-libass --enable-libfdk-aac --enable-libfreetype --enable-libmp3lame --enable-libopus --enable-libtheora --enable-libvorbis --enable-libvpx --enable-libx264 --enable-libx265 --enable-nvenc --enable-libmfx --enable-libxvid --enable-libgsm --enable-libopencore-amrnb --enable-version3 --enable-nonfree
  libavutil      55. 35.100 / 55. 35.100
  libavcodec     57. 66.101 / 57. 66.101
  libavformat    57. 57.100 / 57. 57.100
  libavdevice    57.  2.100 / 57.  2.100
  libavfilter     6. 66.100 /  6. 66.100
  libswscale      4.  3.100 /  4.  3.100
  libswresample   2.  4.100 /  2.  4.100
  libpostproc    54.  2.100 / 54.  2.100
Input #0, yuv4mpegpipe, from 'Input/y4m/sintel.y4m':
  Duration: 00:00:20.83, start: 0.000000, bitrate: 2057307 kb/s
    Stream #0:0: Video: rawvideo (I420 / 0x30323449), yuv420p(progressive), 4096x1744, SAR 1:1 DAR 256:109, 24 fps, 24 tbr, 24 tbn, 24 tbc
[h264_nvenc @ 0x2bc81c0] The variable bitrate rate-control requires the 'qmin' and/or 'qmax' option set.
Output #0, matroska, to 'Output/NVENCh264/encoded/sintelllhp11000k.mkv':
  Metadata:
    encoder         : Lavf57.57.100
    Stream #0:0: Video: h264 (h264_nvenc) (Main) (H264 / 0x34363248), yuv420p, 4096x1744 [SAR 1:1 DAR 256:109], q=-1--1, 11000 kb/s, 24 fps, 1k tbn, 24 tbc
    Metadata:
      encoder         : Lavc57.66.101 h264_nvenc
    Side data:
      cpb: bitrate max/min/avg: 0/0/11000000 buffer size: 22000000 vbv_delay: -1
Stream mapping:
  Stream #0:0 -> #0:0 (rawvideo (native) -> h264 (h264_nvenc))
Press [q] to stop, [?] for help
frame=   17 fps=0.0 q=0.0 size=       0kB time=00:00:00.00 bitrate=N/A speed=   0x    frame=   30 fps= 25 q=0.0 size=       0kB time=00:00:00.00 bitrate=N/A speed=   0x    frame=   51 fps= 30 q=34.0 size=       1kB time=00:00:00.83 bitrate=   7.2kbits/s speed=0.488x    frame=   72 fps= 32 q=32.0 size=       1kB time=00:00:01.70 bitrate=   3.5kbits/s speed=0.77x    frame=   93 fps= 34 q=33.0 size=       1kB time=00:00:02.58 bitrate=   2.3kbits/s speed=0.947x    frame=  114 fps= 35 q=26.0 size=       1kB time=00:00:03.45 bitrate=   1.7kbits/s speed=1.07x    frame=  134 fps= 36 q=29.0 size=    5139kB time=00:00:04.29 bitrate=9806.7kbits/s speed=1.15x    frame=  149 fps= 23 q=29.0 size=    6407kB time=00:00:04.91 bitrate=10672.8kbits/s speed=0.746x    frame=  150 fps= 15 q=30.0 size=    6407kB time=00:00:04.95 bitrate=10584.6kbits/s speed=0.507x    frame=  151 fps= 11 q=30.0 size=    6407kB time=00:00:05.00 bitrate=10495.7kbits/s speed=0.379x    frame=  156 fps= 11 q=31.0 size=    6407kB time=00:00:05.20 bitrate=10076.6kbits/s speed=0.38x    frame=  177 fps= 12 q=31.0 size=    6407kB time=00:00:06.08 bitrate=8627.3kbits/s speed=0.428x    frame=  198 fps= 13 q=28.0 size=    6407kB time=00:00:06.95 bitrate=7542.6kbits/s speed=0.472x    frame=  219 fps= 14 q=29.0 size=    6407kB time=00:00:07.83 bitrate=6700.1kbits/s speed=0.514x    frame=  239 fps= 15 q=29.0 size=   11545kB time=00:00:08.66 bitrate=10911.3kbits/s speed=0.551x    frame=  260 fps= 16 q=31.0 size=   11545kB time=00:00:09.54 bitrate=9910.8kbits/s speed=0.587x    frame=  281 fps= 17 q=27.0 size=   11545kB time=00:00:10.41 bitrate=9078.4kbits/s speed=0.621x    frame=  302 fps= 17 q=29.0 size=   14768kB time=00:00:11.29 bitrate=10712.6kbits/s speed=0.653x    frame=  323 fps= 18 q=28.0 size=   14768kB time=00:00:12.16 bitrate=9942.3kbits/s speed=0.684x    frame=  343 fps= 19 q=23.0 size=   14768kB time=00:00:13.00 bitrate=9305.2kbits/s speed=0.702x    frame=  363 fps= 19 q=23.0 size=   14768kB time=00:00:13.83 bitrate=8744.9kbits/s speed=0.727x    frame=  383 fps= 20 q=24.0 size=   14768kB time=00:00:14.66 bitrate=8247.7kbits/s speed=0.75x    frame=  403 fps= 20 q=24.0 size=   19909kB time=00:00:15.50 bitrate=10521.5kbits/s speed=0.773x    frame=  424 fps= 21 q=25.0 size=   19909kB time=00:00:16.37 bitrate=9959.4kbits/s speed=0.796x    frame=  445 fps= 21 q=26.0 size=   19909kB time=00:00:17.25 bitrate=9454.2kbits/s speed=0.818x    frame=  466 fps= 22 q=28.0 size=   23487kB time=00:00:18.12 bitrate=10615.1kbits/s speed=0.839x    frame=  487 fps= 22 q=29.0 size=   23487kB time=00:00:19.00 bitrate=10126.3kbits/s speed=0.859x    frame=  500 fps= 22 q=29.0 Lsize=   28129kB time=00:00:20.79 bitrate=11082.1kbits/s speed=0.925x    
video:28124kB audio:0kB subtitle:0kB other streams:0kB global headers:0kB muxing overhead: 0.017299%
bench: utime=0.940s
bench: maxrss=1195580kB
